<?xml version="1.0" standalone="no"?>
<!DOCTYPE svg PUBLIC "-//W3C//DTD SVG 20010904//EN"
 "http://www.w3.org/TR/2001/REC-SVG-20010904/DTD/svg10.dtd">
<svg version="1.0" xmlns="http://www.w3.org/2000/svg"
 width="900.000000pt" height="228.000000pt" viewBox="0 0 900.000000 228.000000"
 preserveAspectRatio="xMidYMid meet">
<metadata>
Created by potrace 1.10, written by Peter Selinger 2001-2011
</metadata>
<g transform="translate(0.000000,228.000000) scale(0.100000,-0.100000)"
fill="#000000" stroke="none">
<path d="M1663 2193 c-19 -28 -20 -306 -2 -346 16 -36 51 -52 77 -36 20 13 21
20 19 208 l-2 194 -39 1 c-30 1 -42 -4 -53 -21z"/>
<path d="M1010 1811 c0 -36 7 -46 79 -118 97 -96 109 -103 139 -90 17 8 22 19
22 47 0 32 -9 46 -82 118 -74 74 -85 82 -120 82 -38 0 -38 0 -38 -39z"/>
<path d="M2243 1754 c-51 -53 -93 -99 -93 -104 0 -5 12 -18 27 -30 37 -29 75
-20 116 27 46 53 110 113 120 113 4 0 7 19 5 43 -3 42 -3 42 -43 44 -38 1 -44
-3 -132 -93z"/>
<path d="M1583 1681 c-4 -15 -12 -18 -47 -14 -37 5 -44 2 -48 -15 -4 -15 -12
-19 -32 -15 -19 4 -26 1 -26 -10 0 -8 -8 -18 -17 -21 -51 -18 -145 -106 -158
-147 -15 -46 -41 -59 -119 -59 -53 0 -77 -4 -86 -15 -7 -9 -29 -15 -55 -15
-26 0 -48 -6 -55 -15 -7 -8 -26 -15 -42 -15 -16 0 -31 -6 -34 -15 -4 -8 -14
-15 -24 -15 -10 0 -23 -7 -30 -15 -7 -8 -16 -15 -21 -15 -13 0 -169 -160 -169
-174 0 -8 -7 -19 -15 -26 -8 -7 -15 -18 -15 -25 0 -7 -7 -18 -15 -25 -8 -7
-15 -21 -15 -31 0 -15 -8 -19 -40 -19 -27 0 -43 -5 -46 -15 -4 -9 -19 -15 -35
-15 -17 0 -32 -6 -35 -15 -4 -8 -14 -15 -23 -15 -17 0 -91 -63 -91 -78 0 -5
-7 -15 -15 -22 -8 -7 -15 -20 -15 -30 0 -10 -7 -23 -16 -31 -13 -11 -15 -26
-9 -91 l7 -78 -28 0 c-22 0 -43 -14 -81 -54 -29 -29 -53 -60 -53 -69 0 -8 -7
-17 -15 -21 -9 -3 -15 -18 -15 -35 0 -17 -6 -31 -16 -35 -12 -5 -15 -13 -10
-34 10 -42 12 -124 4 -156 -5 -21 -3 -35 7 -46 8 -9 15 -28 15 -43 0 -16 8
-30 19 -36 12 -7 427 -11 1211 -11 l1192 0 18 22 c11 13 19 33 20 44 0 12 7
27 15 34 11 9 15 35 15 105 0 70 -4 96 -15 105 -8 7 -15 26 -15 42 0 16 -6 31
-15 34 -8 4 -15 10 -15 15 0 17 -102 109 -121 109 -22 0 -69 45 -69 66 0 8 -4
14 -10 14 -5 0 -10 23 -10 50 0 38 -4 50 -15 50 -10 0 -15 10 -15 30 0 20 -5
30 -15 30 -8 0 -17 11 -21 25 -3 14 -10 25 -15 25 -15 0 -10 28 7 34 20 8 15
51 -6 51 -8 0 -16 -10 -18 -21 -2 -12 -11 -29 -21 -39 -17 -14 -23 -15 -53 -2
-19 8 -41 22 -51 31 -9 10 -25 15 -35 13 -14 -4 -14 -6 6 -12 12 -4 22 -11 22
-15 0 -4 20 -29 44 -55 61 -64 94 -135 110 -233 13 -85 23 -102 62 -102 29 0
95 -34 121 -62 36 -38 72 -114 79 -166 5 -38 1 -59 -15 -95 l-21 -47 -1143 0
-1143 0 -18 31 c-26 44 -16 158 20 227 35 69 100 125 167 146 14 5 17 18 17
89 0 55 5 94 15 114 23 46 105 124 137 130 16 3 31 10 34 14 3 5 29 9 58 9 51
0 54 2 70 34 9 19 16 39 16 45 0 34 128 192 191 236 98 69 370 134 394 95 3
-5 29 -10 56 -10 60 0 58 8 -10 35 -52 20 -69 49 -36 61 8 4 15 13 15 20 0 8
7 17 15 20 8 4 15 11 15 18 2 38 195 185 247 186 10 0 27 7 37 15 28 21 243
21 270 0 11 -8 32 -15 47 -15 14 0 32 -7 39 -15 7 -8 20 -15 30 -15 10 0 20
-7 24 -15 3 -8 10 -15 15 -15 13 0 141 -126 141 -138 0 -5 7 -15 15 -22 8 -7
15 -20 15 -30 0 -10 7 -20 15 -24 9 -3 15 -18 15 -38 0 -18 5 -40 10 -48 9
-13 11 -13 20 0 15 23 12 70 -5 76 -9 4 -15 19 -15 35 0 17 -6 32 -15 35 -8 4
-15 13 -15 21 0 16 -152 173 -168 173 -5 0 -15 7 -22 15 -7 8 -23 15 -35 15
-13 0 -26 7 -29 16 -5 13 -15 15 -45 10 -33 -5 -39 -3 -44 14 -5 19 -14 20
-127 20 -111 0 -122 -2 -127 -19z"/>
<path d="M1972 1449 c2 -7 10 -15 17 -17 8 -3 12 1 9 9 -2 7 -10 15 -17 17 -8
3 -12 -1 -9 -9z"/>
<path d="M1380 1420 c-29 -25 -32 -31 -20 -40 8 -5 17 -10 20 -10 13 1 49 38
55 58 9 31 -12 28 -55 -8z"/>
<path d="M1345 1270 c3 -5 17 -10 31 -10 14 0 27 -7 30 -15 4 -8 13 -15 22
-15 8 0 24 -7 34 -17 10 -9 21 -13 25 -9 9 9 -32 45 -72 62 -40 16 -79 19 -70
4z"/>
<path d="M2230 1153 c-1 -66 -5 -106 -15 -123 -8 -14 -14 -40 -15 -58 0 -27 4
-33 18 -30 12 2 18 15 20 47 2 25 10 50 18 56 12 8 14 31 12 105 -3 81 -6 95
-20 98 -16 3 -18 -7 -18 -95z"/>
<path d="M1500 1183 c0 -5 14 -17 30 -28 16 -11 30 -23 30 -27 0 -12 41 -50
47 -44 8 7 -80 106 -94 106 -7 0 -13 -3 -13 -7z"/>
<path d="M2377 1172 c-22 -24 -21 -35 1 -55 16 -15 46 -17 210 -17 105 0 193
3 195 8 2 4 2 24 0 45 l-5 37 -193 0 c-173 0 -194 -2 -208 -18z"/>
<path d="M1710 1120 c0 -13 7 -20 20 -20 11 0 20 4 20 10 0 5 -9 14 -20 20
-17 9 -20 8 -20 -10z"/>
<path d="M1620 1057 c0 -24 39 -94 55 -101 19 -7 55 10 55 25 0 5 -8 13 -17
16 -10 4 -32 21 -50 40 -35 36 -43 40 -43 20z"/>
<path d="M2074 1026 c-8 -22 3 -49 19 -43 6 2 12 14 12 27 0 27 -22 39 -31 16z"/>
<path d="M1845 970 c3 -5 17 -10 31 -10 13 0 24 5 24 10 0 6 -14 10 -31 10
-17 0 -28 -4 -24 -10z"/>
<path d="M1950 940 c0 -5 10 -10 23 -10 18 0 19 2 7 10 -19 13 -30 13 -30 0z"/>
<path d="M5272 447 l3 -392 65 0 c36 0 70 1 76 3 8 2 9 55 6 175 l-5 173 35
37 c30 32 41 37 79 37 56 0 63 -6 85 -58 14 -38 16 -67 11 -203 -6 -180 -13
-167 88 -165 l60 1 2 185 c2 208 -7 259 -61 318 -29 31 -33 32 -109 32 l-80 0
-48 -45 c-26 -25 -53 -45 -58 -45 -6 0 -18 -14 -26 -31 -12 -22 -22 -29 -38
-27 -20 3 -22 8 -18 63 1 33 5 62 7 64 2 3 15 -6 28 -18 21 -20 24 -20 30 -5
9 24 28 272 22 283 -3 5 -40 9 -81 9 l-75 0 2 -391z m403 32 c4 -6 5 -12 2
-15 -7 -7 -37 7 -37 17 0 13 27 11 35 -2z"/>
<path d="M2543 804 c-3 -9 -1 -24 5 -33 25 -34 51 -98 57 -138 4 -24 11 -45
16 -49 5 -3 9 -19 9 -35 0 -16 6 -44 14 -62 7 -18 16 -54 20 -79 4 -26 11 -50
15 -53 5 -2 12 -26 16 -52 4 -27 10 -52 15 -58 4 -5 11 -32 15 -60 4 -27 11
-54 15 -60 5 -5 10 -23 12 -40 l3 -30 100 0 100 0 3 40 c1 22 6 47 9 55 8 19
28 98 44 170 6 30 15 63 20 72 5 10 9 34 9 53 0 20 7 52 15 72 20 48 11 54
-25 15 -16 -18 -31 -32 -33 -32 -11 0 8 100 28 155 28 73 59 101 98 86 15 -6
27 -17 27 -24 0 -8 8 -29 17 -48 27 -55 54 -229 35 -229 -15 0 -46 51 -52 84
-8 46 -30 45 -30 -1 0 -22 3 -43 7 -47 5 -4 13 -35 20 -69 22 -120 35 -172 43
-182 4 -5 11 -32 14 -58 4 -26 14 -63 21 -81 l14 -33 86 -1 c98 -1 98 -1 111
100 4 29 10 58 14 63 5 6 13 33 19 60 5 28 17 75 27 105 9 30 22 80 28 110 7
30 18 68 24 83 7 16 12 36 12 47 0 10 7 31 15 46 8 16 15 40 15 53 0 14 7 32
16 42 31 34 13 44 -77 43 l-84 -2 -3 -33 c-1 -19 -7 -43 -12 -54 -10 -20 -22
-85 -40 -220 -6 -38 -15 -80 -20 -93 -13 -30 -13 -79 0 -87 6 -3 14 5 20 19
17 46 32 31 27 -26 -10 -101 -24 -151 -47 -170 -26 -21 -69 -23 -94 -5 -17 13
-56 143 -70 235 -8 54 10 54 37 -1 10 -20 23 -37 28 -37 11 0 12 117 0 124 -4
3 -11 33 -15 65 -4 33 -11 63 -15 66 -5 3 -12 32 -16 65 -4 33 -11 63 -16 66
-5 3 -9 23 -9 45 l0 40 -97 -3 -98 -3 -8 -50 c-5 -27 -13 -58 -18 -67 -5 -9
-12 -36 -15 -60 -4 -24 -11 -48 -16 -54 -5 -7 -11 -35 -15 -63 -3 -28 -10 -54
-14 -57 -5 -3 -9 -28 -9 -56 0 -33 -6 -58 -16 -69 -9 -10 -13 -23 -9 -29 4 -7
16 -1 32 16 23 25 26 26 35 10 7 -12 4 -39 -8 -89 -28 -117 -83 -147 -148 -83
-27 27 -35 45 -39 83 -3 26 -10 71 -17 98 -19 76 -18 90 6 93 20 3 41 -31 59
-96 4 -12 11 -20 16 -17 12 8 12 68 -1 81 -5 5 -14 43 -19 84 -17 127 -30 200
-41 220 -5 10 -10 39 -10 64 l0 46 -81 0 c-44 0 -89 5 -100 10 -15 9 -21 7
-26 -6z m977 -109 c0 -8 -4 -15 -10 -15 -5 0 -10 7 -10 15 0 8 5 15 10 15 6 0
10 -7 10 -15z m-794 -101 c7 -32 17 -72 23 -87 16 -40 14 -77 -3 -77 -24 0
-44 28 -51 72 -4 24 -11 48 -15 53 -4 6 -11 33 -14 60 -4 28 -10 59 -13 70 -5
18 -3 17 27 -6 27 -21 36 -37 46 -85z m779 17 c-7 -38 -21 -61 -38 -61 -12 0
-1 79 15 97 18 22 30 3 23 -36z m-535 -246 c0 -8 -7 -15 -15 -15 -16 0 -20 12
-8 23 11 12 23 8 23 -8z"/>
<path d="M7220 811 c-8 -6 -27 -11 -42 -11 -39 0 -139 -55 -181 -98 -43 -45
-77 -108 -77 -142 0 -14 -4 -30 -9 -35 -5 -6 -13 -53 -17 -106 -7 -99 -5 -107
44 -207 19 -39 91 -108 130 -124 15 -6 41 -17 58 -24 43 -19 267 -14 309 7 28
13 29 17 30 83 0 74 -12 91 -44 62 -43 -39 -202 -40 -256 -2 -40 29 -75 66
-75 81 0 7 -7 18 -15 25 -11 9 -15 35 -15 106 0 69 4 96 15 108 8 8 15 19 15
25 0 18 69 80 113 101 58 28 134 26 199 -5 28 -14 56 -25 60 -25 5 0 8 37 6
83 l-3 82 -50 7 c-103 16 -180 19 -195 9z m119 -65 c-7 -8 -152 -36 -181 -36
-16 0 -28 -5 -28 -10 0 -6 -20 -30 -45 -53 -24 -23 -44 -52 -44 -62 1 -11 -6
-50 -14 -87 -18 -78 -9 -188 17 -217 9 -10 16 -22 16 -28 0 -6 12 -19 28 -28
15 -10 31 -25 36 -33 10 -18 68 -42 101 -42 14 0 25 -4 25 -9 0 -5 7 -17 16
-25 14 -15 14 -16 -5 -16 -11 0 -29 9 -39 20 -17 18 -21 19 -31 6 -9 -10 -18
-12 -29 -6 -10 5 -33 12 -53 15 -21 3 -49 15 -64 27 -42 33 -92 149 -106 250
-13 85 -12 88 9 111 12 13 22 28 22 34 0 15 80 123 91 123 6 0 26 12 46 27 19
15 54 30 77 34 47 8 161 11 155 5z"/>
<path d="M5005 739 c-79 -20 -110 -37 -113 -62 -2 -14 3 -38 11 -52 12 -24 20
-27 67 -29 50 -1 54 0 65 29 7 16 16 49 20 71 7 47 -2 55 -50 43z"/>
<path d="M8745 725 c-38 -12 -71 -28 -73 -34 -2 -6 3 -32 12 -57 17 -52 14
-56 -49 -52 l-40 3 -3 -49 c-2 -27 1 -53 6 -58 5 -5 27 -6 50 -2 40 6 42 8 42
43 0 47 7 56 58 76 34 14 45 15 57 5 12 -10 16 -9 20 1 10 27 10 142 0 145 -5
1 -41 -8 -80 -21z"/>
<path d="M3865 591 c-89 -14 -174 -109 -194 -217 -23 -126 24 -240 120 -293
63 -35 212 -42 284 -13 l50 20 3 51 c3 58 -4 62 -59 34 -24 -13 -56 -18 -110
-17 -63 1 -81 5 -107 24 -28 21 -32 29 -32 73 l0 49 43 -5 c79 -11 286 -12
297 -1 6 6 8 39 4 88 -8 88 -36 138 -101 180 -42 26 -128 38 -198 27z m123
-104 c24 -11 52 -65 52 -98 0 -17 -9 -19 -90 -21 -49 -1 -98 -2 -107 -2 -14
-1 -19 8 -21 40 -3 36 1 44 25 59 71 47 86 49 141 22z m-178 -160 c0 -21 -45
-76 -54 -66 -11 12 -16 88 -7 94 6 3 11 16 11 28 0 21 1 21 25 -5 14 -15 25
-38 25 -51z"/>
<path d="M6089 591 c-54 -8 -142 -68 -166 -115 -9 -17 -22 -60 -30 -95 -26
-126 15 -237 109 -298 38 -24 55 -28 143 -31 82 -3 109 0 150 16 l50 20 3 51
c2 28 -1 51 -5 51 -4 0 -35 -10 -68 -21 -109 -37 -234 -7 -235 57 0 11 -6 29
-14 40 -13 16 -18 17 -35 7 -23 -14 -27 -11 -36 38 -7 37 2 50 48 74 11 5 23
17 27 25 4 8 11 24 16 35 6 11 31 30 56 43 l46 23 46 -21 c46 -20 46 -21 46
-70 l0 -50 -77 -1 c-113 -2 -137 -9 -141 -40 -3 -26 -1 -26 70 -34 132 -13
287 -13 292 1 10 26 -11 160 -30 194 -31 52 -98 100 -142 100 -20 0 -46 2 -57
4 -11 2 -41 1 -66 -3z"/>
<path d="M6755 590 c-20 -6 -40 -24 -55 -50 -14 -22 -32 -42 -41 -45 -9 -3
-19 -14 -22 -24 -2 -10 -18 -28 -35 -40 l-31 -22 -7 26 c-9 36 1 53 37 63 25
6 35 15 41 37 13 51 6 56 -73 53 l-71 -3 0 -257 c0 -141 2 -260 5 -265 3 -5
36 -8 74 -8 l68 1 5 164 c5 177 10 194 61 230 25 18 38 21 75 15 l45 -6 -3 68
c-3 75 -10 81 -73 63z"/>
<path d="M8305 590 c-33 -3 -74 -13 -90 -22 -76 -41 -105 -126 -69 -200 17
-36 74 -78 104 -78 10 0 21 -4 24 -9 3 -4 20 -11 38 -15 60 -12 86 -29 92 -59
3 -16 4 -32 1 -37 -2 -4 -31 -13 -64 -20 -54 -11 -64 -10 -117 10 -32 12 -64
26 -71 32 -20 17 -33 -1 -33 -46 0 -28 7 -52 19 -67 17 -22 29 -24 116 -27
100 -4 172 11 222 46 35 25 66 98 60 140 -8 44 -51 100 -84 108 -15 4 -38 13
-52 20 -14 8 -34 14 -43 14 -32 0 -69 24 -85 54 -14 28 -14 30 8 47 30 23 125
25 153 4 11 -8 32 -15 48 -15 27 0 28 2 28 48 0 26 -4 52 -8 59 -8 13 -113 20
-197 13z"/>
<path d="M4323 570 c-42 -19 -43 -20 -43 -69 0 -55 12 -71 38 -49 27 23 104
48 149 48 49 0 92 -21 110 -52 16 -30 16 -34 -3 -52 -11 -12 -37 -16 -102 -17
-73 0 -96 -4 -142 -27 -69 -34 -85 -64 -85 -155 0 -68 1 -69 42 -108 40 -37
46 -39 105 -39 63 0 102 16 131 52 6 9 22 19 35 23 20 6 22 3 22 -28 l0 -34
57 -6 c73 -8 87 2 77 57 -4 23 -8 113 -9 201 -1 149 -3 162 -24 195 -45 67
-78 80 -204 80 -89 0 -121 -4 -154 -20z m307 -225 c0 -19 -2 -35 -5 -35 -8 0
-54 53 -55 63 0 4 14 7 30 7 28 0 30 -3 30 -35z m-40 -59 c0 -18 -7 -39 -15
-46 -8 -7 -15 -18 -15 -25 0 -36 -99 -79 -140 -61 -32 14 -59 46 -60 69 0 28
54 77 87 78 15 0 37 4 48 9 11 5 37 9 58 9 36 1 37 0 37 -33z m50 -105 c0 -12
-29 -35 -36 -28 -11 10 5 37 21 37 8 0 15 -4 15 -9z"/>
<path d="M4806 583 c-3 -4 -6 -28 -6 -54 0 -53 7 -58 70 -54 l35 2 3 55 3 55
-49 1 c-28 0 -53 -2 -56 -5z"/>
<path d="M5068 583 c-37 -4 -51 -24 -28 -38 6 -3 10 -19 10 -35 0 -26 3 -29
51 -35 28 -4 55 -3 59 1 11 12 16 86 6 102 -7 12 -23 13 -98 5z"/>
<path d="M7654 579 c-42 -12 -53 -27 -60 -83 -6 -41 -5 -46 12 -46 11 0 42 11
69 25 60 29 129 32 180 8 31 -15 35 -21 35 -54 0 -33 -3 -37 -31 -43 -17 -3
-60 -6 -95 -6 -80 0 -164 -37 -194 -85 -27 -43 -27 -126 -1 -169 34 -55 73
-76 139 -76 52 0 65 4 105 35 56 42 66 43 73 6 6 -26 10 -29 66 -35 33 -3 64
-4 68 -1 4 3 6 91 3 197 -5 236 -14 268 -92 320 -21 15 -47 18 -136 17 -60 0
-124 -5 -141 -10z m289 -201 c2 -13 8 -30 11 -39 9 -21 -19 -33 -45 -19 -23
13 -25 47 -3 71 20 22 30 18 37 -13z m-53 -102 c0 -49 -3 -57 -35 -85 -43 -37
-76 -47 -124 -35 -35 9 -36 11 -39 57 -4 59 6 73 66 87 26 6 61 15 77 20 54
15 55 14 55 -44z m64 -93 c8 -20 -11 -43 -35 -43 -13 0 -19 7 -19 23 0 43 40
58 54 20z m-284 -14 c0 -20 -15 -26 -25 -9 -9 15 3 43 15 35 5 -3 10 -15 10
-26z"/>
<path d="M8865 583 c-37 -6 -45 -17 -45 -65 0 -30 4 -38 19 -38 10 0 39 -3 65
-6 l47 -7 -3 59 c-3 65 -9 68 -83 57z"/>
<path d="M8693 433 c-4 -21 -8 -96 -8 -168 0 -115 2 -133 20 -157 34 -45 67
-58 143 -58 99 0 102 2 102 66 l0 54 -46 -2 c-68 -2 -74 11 -74 151 0 64 -4
121 -8 126 -4 6 -23 10 -42 11 -19 1 -45 5 -57 9 -19 6 -23 2 -30 -32z m115
-264 c15 -24 10 -34 -13 -26 -15 6 -22 47 -7 47 4 0 13 -9 20 -21z"/>
<path d="M4910 436 c-5 -14 -12 -69 -16 -123 -8 -131 11 -202 64 -238 31 -21
48 -25 109 -25 100 0 103 2 103 67 l0 55 -37 -3 c-84 -5 -83 -5 -88 147 -5
144 -5 144 -71 144 -49 0 -56 -3 -64 -24z m122 -263 c23 -21 23 -33 0 -33 -21
0 -42 18 -42 37 0 18 20 16 42 -4z"/>
</g>
</svg>
